mtllib cmn_obj_woodbox_SD.mtl

v 8.856445 1.166992 -10.082031
v -6.566406 18.853516 -10.020508
v 8.839844 3.561523 -10.020508
v -8.841797 18.853516 -10.082031
v 6.594727 1.166992 -10.020508
v -8.875000 16.593750 -10.020508
v -9.909180 18.768555 8.759766
v -9.909180 1.251953 -8.759766
v -9.909180 1.251953 8.759766
v -9.909180 18.768555 -8.759766
v 9.909180 18.768555 8.759766
v 9.909180 1.251953 -8.759766
v 9.909180 18.768555 -8.759766
v 9.909180 1.251953 8.759766
v 8.759766 0.095703 8.759766
v -8.759766 0.095703 -8.759766
v 8.759766 0.095703 -8.759766
v -8.759766 0.095703 8.759766
v 8.759766 19.916016 8.759766
v -8.759766 19.916016 -8.759766
v -8.759766 19.916016 8.759766
v 8.759766 19.916016 -8.759766
v 8.759766 18.768555 9.924805
v -8.759766 1.251953 9.924805
v 8.759766 1.251953 9.924805
v -8.759766 18.768555 9.924805
v 8.759766 18.768555 -9.924805
v -8.759766 1.251953 -9.924805
v -8.759766 18.768555 -9.924805
v 8.759766 1.251953 -9.924805
v -8.759766 0.095703 -8.759766
v -10.004883 0.000000 10.020508
v -10.004883 0.000000 -10.020508
v -8.759766 0.095703 8.759766
v -8.759766 0.095703 8.759766
v 10.004883 0.000000 10.020508
v -10.004883 0.000000 10.020508
v 8.759766 0.095703 8.759766
v 8.759766 0.095703 8.759766
v 10.004883 0.000000 -10.020508
v 10.004883 0.000000 10.020508
v 8.759766 0.095703 -8.759766
v 8.759766 0.095703 -8.759766
v -10.004883 0.000000 -10.020508
v 10.004883 0.000000 -10.020508
v -8.759766 0.095703 -8.759766
v -8.759766 1.251953 -9.924805
v 10.004883 0.000000 -10.020508
v -10.004883 0.000000 -10.020508
v 8.759766 1.251953 -9.924805
v 8.759766 1.251953 -9.924805
v 10.004883 20.011719 -10.020508
v 10.004883 0.000000 -10.020508
v 8.759766 18.768555 -9.924805
v 8.759766 18.768555 -9.924805
v -10.004883 20.011719 -10.020508
v 10.004883 20.011719 -10.020508
v -8.759766 18.768555 -9.924805
v -8.759766 18.768555 -9.924805
v -10.004883 0.000000 -10.020508
v -10.004883 20.011719 -10.020508
v -8.759766 1.251953 -9.924805
v -9.909180 18.768555 -8.759766
v -10.004883 20.011719 10.020508
v -10.004883 20.011719 -10.020508
v -9.909180 18.768555 8.759766
v -9.909180 18.768555 8.759766
v -10.004883 0.000000 10.020508
v -10.004883 20.011719 10.020508
v -9.909180 1.251953 8.759766
v -9.909180 1.251953 8.759766
v -10.004883 0.000000 -10.020508
v -10.004883 0.000000 10.020508
v -9.909180 1.251953 -8.759766
v 9.909180 1.251953 -8.759766
v 10.004883 0.000000 10.020508
v 10.004883 0.000000 -10.020508
v 9.909180 1.251953 8.759766
v 9.909180 1.251953 8.759766
v 10.004883 20.011719 10.020508
v 10.004883 0.000000 10.020508
v 9.909180 18.768555 8.759766
v 9.909180 18.768555 8.759766
v 10.004883 20.011719 -10.020508
v 10.004883 20.011719 10.020508
v 9.909180 18.768555 -8.759766
v 8.759766 19.916016 -8.759766
v 10.004883 20.011719 10.020508
v 10.004883 20.011719 -10.020508
v 8.759766 19.916016 8.759766
v 8.759766 19.916016 8.759766
v -10.004883 20.011719 10.020508
v 10.004883 20.011719 10.020508
v -8.759766 19.916016 8.759766
v -8.759766 19.916016 8.759766
v -10.004883 20.011719 -10.020508
v -10.004883 20.011719 10.020508
v -8.759766 19.916016 -8.759766
v -8.759766 19.916016 -8.759766
v 10.004883 20.011719 -10.020508
v -10.004883 20.011719 -10.020508
v 8.759766 19.916016 -8.759766
v -8.759766 1.251953 9.924805
v -10.004883 20.011719 10.020508
v -10.004883 0.000000 10.020508
v -8.759766 18.768555 9.924805
v -8.759766 18.768555 9.924805
v 10.004883 20.011719 10.020508
v -10.004883 20.011719 10.020508
v 8.759766 18.768555 9.924805
v 8.759766 18.768555 9.924805
v 10.004883 0.000000 10.020508
v 10.004883 20.011719 10.020508
v 8.759766 1.251953 9.924805
v 8.759766 1.251953 9.924805
v -10.004883 0.000000 10.020508
v 10.004883 0.000000 10.020508
v -8.759766 1.251953 9.924805
v -6.566406 18.853516 10.020508
v 8.856445 1.166992 10.083008
v 8.839844 3.561523 10.020508
v -8.841797 18.853516 10.083008
v 6.594727 1.166992 10.020508
v -8.875000 16.593750 10.020508
v -10.004883 0.000000 -10.020508
v -9.909180 1.251953 -8.759766
v -10.004883 20.011719 -10.020508
v -9.909180 18.768555 -8.759766
v -10.004883 20.011719 -10.020508
v -9.909180 1.251953 -8.759766
v 10.004883 20.011719 -10.020508
v 9.909180 18.768555 -8.759766
v 10.004883 0.000000 -10.020508
v 9.909180 1.251953 -8.759766
v 10.004883 0.000000 -10.020508
v 9.909180 18.768555 -8.759766

vt 0.294983 0.082245
vt 0.356689 0.855927
vt 0.357269 0.127167
vt 0.294708 0.897949
vt 0.234344 0.126709
vt 0.233185 0.855865
vt 0.902496 0.912567
vt 0.095795 0.085449
vt 0.902496 0.085480
vt 0.095795 0.912567
vt 0.095825 0.912567
vt 0.902496 0.085449
vt 0.902527 0.912537
vt 0.095795 0.085480
vt 0.095795 0.085480
vt 0.902496 0.912567
vt 0.095795 0.912567
vt 0.902496 0.085480
vt 0.095795 0.912567
vt 0.902496 0.085480
vt 0.902496 0.912567
vt 0.095795 0.085449
vt 0.902496 0.912567
vt 0.095795 0.085480
vt 0.902496 0.085480
vt 0.095795 0.912567
vt 0.095795 0.912567
vt 0.902496 0.085480
vt 0.902496 0.912567
vt 0.095795 0.085480
vt 0.054291 0.922028
vt 0.983215 0.994110
vt 0.005341 0.994110
vt 0.936523 0.922028
vt 0.940002 0.079773
vt 0.003540 0.012421
vt 0.991913 0.012421
vt 0.046478 0.079773
vt 0.940002 0.079773
vt 0.003510 0.012421
vt 0.991913 0.012421
vt 0.046478 0.079773
vt 0.054291 0.922028
vt 0.983215 0.994110
vt 0.005341 0.994080
vt 0.936523 0.922028
vt 0.940002 0.079773
vt 0.003540 0.012421
vt 0.991913 0.012421
vt 0.046478 0.079773
vt 0.940002 0.079773
vt 0.003510 0.012421
vt 0.991913 0.012421
vt 0.046478 0.079773
vt 0.054291 0.922028
vt 0.983215 0.994110
vt 0.005341 0.994110
vt 0.936523 0.922028
vt 0.054291 0.922028
vt 0.983215 0.994110
vt 0.005341 0.994110
vt 0.936523 0.922028
vt 0.054291 0.922028
vt 0.983215 0.994110
vt 0.005341 0.994110
vt 0.936523 0.922028
vt 0.054291 0.922028
vt 0.983215 0.994110
vt 0.005341 0.994110
vt 0.936523 0.922028
vt 0.940002 0.079773
vt 0.003540 0.012421
vt 0.991913 0.012421
vt 0.046478 0.079773
vt 0.940002 0.079742
vt 0.003510 0.012421
vt 0.991913 0.012390
vt 0.046478 0.079773
vt 0.940002 0.079773
vt 0.003510 0.012421
vt 0.991913 0.012421
vt 0.046478 0.079773
vt 0.054291 0.922058
vt 0.983246 0.994080
vt 0.005371 0.994110
vt 0.936554 0.921997
vt 0.054260 0.922028
vt 0.983215 0.994110
vt 0.005341 0.994080
vt 0.936523 0.922028
vt 0.054291 0.922028
vt 0.983215 0.994110
vt 0.005341 0.994110
vt 0.936523 0.922028
vt 0.940002 0.079773
vt 0.003540 0.012421
vt 0.991913 0.012421
vt 0.046478 0.079773
vt 0.940002 0.079773
vt 0.003510 0.012421
vt 0.991913 0.012421
vt 0.046478 0.079773
vt 0.940002 0.079773
vt 0.003510 0.012421
vt 0.991913 0.012421
vt 0.046478 0.079773
vt 0.054291 0.922028
vt 0.983215 0.994110
vt 0.005341 0.994110
vt 0.936523 0.922028
vt 0.054291 0.922028
vt 0.983215 0.994110
vt 0.005341 0.994110
vt 0.936523 0.922028
vt 0.940002 0.079773
vt 0.003510 0.012421
vt 0.991913 0.012421
vt 0.046478 0.079773
vt 0.356689 0.855927
vt 0.294983 0.082245
vt 0.357269 0.127167
vt 0.294708 0.897949
vt 0.234344 0.126709
vt 0.233185 0.855865
vt 0.991913 0.012421
vt 0.940002 0.079773
vt 0.003510 0.012421
vt 0.046478 0.079773
vt 0.003510 0.012421
vt 0.940002 0.079773
vt 0.005341 0.994110
vt 0.054291 0.922028
vt 0.983215 0.994110
vt 0.936523 0.922028
vt 0.983215 0.994110
vt 0.054291 0.922028

vn -0.000793 -0.000732 -0.999999
vn 0.027039 0.027039 -0.999269
vn 0.025696 0.025879 -0.999335
vn -0.000122 -0.000183 -1.000000
vn -0.027221 -0.027221 -0.999259
vn -0.026795 -0.026856 -0.999280
vn -1.000000 0.000000 0.000000
vn -1.000000 0.000000 0.000000
vn -1.000000 0.000000 0.000000
vn -1.000000 0.000000 0.000000
vn 1.000000 0.000000 0.000000
vn 1.000000 0.000000 0.000000
vn 1.000000 0.000000 0.000000
vn 1.000000 0.000000 0.000000
vn 0.000000 -1.000000 0.000000
vn 0.000000 -1.000000 0.000000
vn 0.000000 -1.000000 0.000000
vn 0.000000 -1.000000 0.000000
vn 0.000000 1.000000 0.000000
vn 0.000000 1.000000 0.000000
vn 0.000000 1.000000 0.000000
vn 0.000000 1.000000 0.000000
vn 0.000000 0.000000 1.000000
vn 0.000000 0.000000 1.000000
vn 0.000000 0.000000 1.000000
vn 0.000000 0.000000 1.000000
vn 0.000000 0.000000 -1.000000
vn 0.000000 0.000000 -1.000000
vn 0.000000 0.000000 -1.000000
vn 0.000000 0.000000 -1.000000
vn 0.076781 -0.997048 0.000000
vn 0.076781 -0.997048 0.000000
vn 0.076781 -0.997048 0.000000
vn 0.076781 -0.997048 0.000000
vn 0.000000 -0.997118 -0.075866
vn 0.000000 -0.997118 -0.075866
vn 0.000000 -0.997118 -0.075866
vn 0.000000 -0.997118 -0.075866
vn -0.076781 -0.997048 0.000000
vn -0.076781 -0.997048 0.000000
vn -0.076781 -0.997048 0.000000
vn -0.076781 -0.997048 0.000000
vn 0.000000 -0.997118 0.075866
vn 0.000000 -0.997118 0.075866
vn 0.000000 -0.997118 0.075866
vn 0.000000 -0.997118 0.075866
vn 0.000000 0.076477 -0.997071
vn 0.000000 0.076477 -0.997071
vn 0.000000 0.076477 -0.997071
vn 0.000000 0.076477 -0.997071
vn -0.076902 0.000000 -0.997039
vn -0.076902 0.000000 -0.997039
vn -0.076902 0.000000 -0.997039
vn -0.076902 0.000000 -0.997039
vn 0.000000 -0.077028 -0.997029
vn 0.000000 -0.077028 -0.997029
vn 0.000000 -0.077028 -0.997029
vn 0.000000 -0.077028 -0.997029
vn 0.076902 0.000000 -0.997039
vn 0.076902 0.000000 -0.997039
vn 0.076902 0.000000 -0.997039
vn 0.076902 0.000000 -0.997039
vn -0.997038 -0.076907 0.000000
vn -0.997038 -0.076907 0.000000
vn -0.997038 -0.076907 0.000000
vn -0.997038 -0.076907 0.000000
vn -0.997123 0.000000 -0.075805
vn -0.997123 0.000000 -0.075805
vn -0.997123 0.000000 -0.075805
vn -0.997123 0.000000 -0.075805
vn -0.997081 0.076356 0.000000
vn -0.997081 0.076356 0.000000
vn -0.997081 0.076356 0.000000
vn -0.997081 0.076356 0.000000
vn 0.997081 0.076356 0.000000
vn 0.997081 0.076356 0.000000
vn 0.997081 0.076356 0.000000
vn 0.997081 0.076356 0.000000
vn 0.997123 0.000000 -0.075805
vn 0.997123 0.000000 -0.075805
vn 0.997123 0.000000 -0.075805
vn 0.997123 0.000000 -0.075805
vn 0.997038 -0.076907 0.000000
vn 0.997038 -0.076907 0.000000
vn 0.997038 -0.076907 0.000000
vn 0.997038 -0.076907 0.000000
vn -0.076720 0.997053 0.000000
vn -0.076720 0.997053 0.000000
vn -0.076720 0.997053 0.000000
vn -0.076720 0.997053 0.000000
vn 0.000000 0.997123 -0.075805
vn 0.000000 0.997123 -0.075805
vn 0.000000 0.997123 -0.075805
vn 0.000000 0.997123 -0.075805
vn 0.076720 0.997053 0.000000
vn 0.076720 0.997053 0.000000
vn 0.076720 0.997053 0.000000
vn 0.076720 0.997053 0.000000
vn 0.000000 0.997123 0.075805
vn 0.000000 0.997123 0.075805
vn 0.000000 0.997123 0.075805
vn 0.000000 0.997123 0.075805
vn 0.076902 0.000000 0.997039
vn 0.076902 0.000000 0.997039
vn 0.076902 0.000000 0.997039
vn 0.076902 0.000000 0.997039
vn 0.000000 -0.077028 0.997029
vn 0.000000 -0.077028 0.997029
vn 0.000000 -0.077028 0.997029
vn 0.000000 -0.077028 0.997029
vn -0.076902 0.000000 0.997039
vn -0.076902 0.000000 0.997039
vn -0.076902 0.000000 0.997039
vn -0.076902 0.000000 0.997039
vn 0.000000 0.076477 0.997071
vn 0.000000 0.076477 0.997071
vn 0.000000 0.076477 0.997071
vn 0.000000 0.076477 0.997071
vn 0.027404 0.027404 0.999249
vn -0.000793 -0.000732 0.999999
vn 0.026062 0.026245 0.999316
vn -0.000122 -0.000183 1.000000
vn -0.027587 -0.027587 0.999239
vn -0.027160 -0.027221 0.999260
vn -0.997123 0.000000 0.075805
vn -0.997123 0.000000 0.075805
vn -0.997123 0.000000 0.075805
vn -0.997123 0.000000 0.075805
vn -0.997123 0.000000 0.075805
vn -0.997123 0.000000 0.075805
vn 0.997123 0.000000 0.075805
vn 0.997123 0.000000 0.075805
vn 0.997123 0.000000 0.075805
vn 0.997123 0.000000 0.075805
vn 0.997123 0.000000 0.075805
vn 0.997123 0.000000 0.075805

g polygon0
s 1
usemtl mat1
f 1/1/1 2/2/2 3/3/3
f 1/1/1 4/4/4 2/2/2
f 5/5/5 4/4/4 1/1/1
f 5/5/5 6/6/6 4/4/4
f 7/7/7 8/8/8 9/9/9
f 7/7/7 10/10/10 8/8/8
f 11/11/11 12/12/12 13/13/13
f 11/11/11 14/14/14 12/12/12
f 15/15/15 16/16/16 17/17/17
f 15/15/15 18/18/18 16/16/16
f 19/19/19 20/20/20 21/21/21
f 19/19/19 22/22/22 20/20/20
f 23/23/23 24/24/24 25/25/25
f 23/23/23 26/26/26 24/24/24
f 27/27/27 28/28/28 29/29/29
f 27/27/27 30/30/30 28/28/28
f 31/31/31 32/32/32 33/33/33
f 31/31/31 34/34/34 32/32/32
f 35/35/35 36/36/36 37/37/37
f 35/35/35 38/38/38 36/36/36
f 39/39/39 40/40/40 41/41/41
f 39/39/39 42/42/42 40/40/40
f 43/43/43 44/44/44 45/45/45
f 43/43/43 46/46/46 44/44/44
f 47/47/47 48/48/48 49/49/49
f 47/47/47 50/50/50 48/48/48
f 51/51/51 52/52/52 53/53/53
f 51/51/51 54/54/54 52/52/52
f 55/55/55 56/56/56 57/57/57
f 55/55/55 58/58/58 56/56/56
f 59/59/59 60/60/60 61/61/61
f 59/59/59 62/62/62 60/60/60
f 63/63/63 64/64/64 65/65/65
f 63/63/63 66/66/66 64/64/64
f 67/67/67 68/68/68 69/69/69
f 67/67/67 70/70/70 68/68/68
f 71/71/71 72/72/72 73/73/73
f 71/71/71 74/74/74 72/72/72
f 75/75/75 76/76/76 77/77/77
f 75/75/75 78/78/78 76/76/76
f 79/79/79 80/80/80 81/81/81
f 79/79/79 82/82/82 80/80/80
f 83/83/83 84/84/84 85/85/85
f 83/83/83 86/86/86 84/84/84
f 87/87/87 88/88/88 89/89/89
f 87/87/87 90/90/90 88/88/88
f 91/91/91 92/92/92 93/93/93
f 91/91/91 94/94/94 92/92/92
f 95/95/95 96/96/96 97/97/97
f 95/95/95 98/98/98 96/96/96
f 99/99/99 100/100/100 101/101/101
f 99/99/99 102/102/102 100/100/100
f 103/103/103 104/104/104 105/105/105
f 103/103/103 106/106/106 104/104/104
f 107/107/107 108/108/108 109/109/109
f 107/107/107 110/110/110 108/108/108
f 111/111/111 112/112/112 113/113/113
f 111/111/111 114/114/114 112/112/112
f 115/115/115 116/116/116 117/117/117
f 115/115/115 118/118/118 116/116/116
f 119/119/119 120/120/120 121/121/121
f 119/119/119 122/122/122 120/120/120
f 123/123/123 122/122/122 124/124/124
f 123/123/123 120/120/120 122/122/122
f 125/125/125 126/126/126 127/127/127
f 128/128/128 129/129/129 130/130/130
f 131/131/131 132/132/132 133/133/133
f 134/134/134 135/135/135 136/136/136

