mtllib cmn_obj_pushbox_SD.mtl

v -6.758789 -0.000393 6.581055
v -7.620117 1.345310 8.072266
v -6.758789 -0.000393 6.581055
v -5.037109 1.345310 6.581055
v -6.758789 -0.000393 6.581055
v -7.620117 1.345310 5.088867
v 7.620117 1.345310 8.072266
v 6.758789 -0.000393 6.581055
v 7.620117 1.345310 5.088867
v 6.758789 -0.000393 6.581055
v 5.037109 1.345310 6.581055
v 6.758789 -0.000393 6.581055
v -7.620117 1.345310 -8.072266
v -6.758789 -0.000393 -6.581055
v -7.620117 1.345310 -5.088867
v -6.758789 -0.000393 -6.581055
v -5.037109 1.345310 -6.581055
v -6.758789 -0.000393 -6.581055
v 6.758789 -0.000393 -6.581055
v 7.620117 1.345310 -8.072266
v 6.758789 -0.000393 -6.581055
v 5.037109 1.345310 -6.581055
v 6.758789 -0.000393 -6.581055
v 7.620117 1.345310 -5.088867
v 8.427734 2.315036 -9.369141
v -8.427734 1.315036 -8.432617
v -8.427734 2.315036 -9.369141
v 8.427734 1.315036 -8.432617
v 9.364258 2.315036 8.432617
v 8.427734 1.315036 -8.432617
v 9.364258 2.315036 -8.432617
v 8.427734 1.315036 8.432617
v -9.364258 2.315036 -8.432617
v -8.427734 1.315036 8.432617
v -9.364258 2.315036 8.432617
v -8.427734 2.315036 9.369141
v 8.427734 2.315036 9.369141
v -8.427734 1.315036 8.432617
v 9.364258 18.990818 -8.432617
v 8.427734 19.990818 8.432617
v 9.364258 18.990818 8.432617
v 8.427734 19.990818 -8.432617
v -8.427734 18.990818 -9.369141
v 8.427734 19.990818 -8.432617
v 8.427734 18.990818 -9.369141
v -8.427734 19.990818 -8.432617
v -9.364258 18.990818 8.432617
v -9.364258 18.990818 -8.432617
v -8.427734 19.990818 8.432617
v 8.427734 18.990818 9.369141
v -8.427734 19.990818 8.432617
v -8.427734 18.990818 9.369141
v 8.427734 2.315036 -9.369141
v 9.364258 2.315036 -8.432617
v 8.427734 1.315036 -8.432617
v 8.427734 18.990818 -9.369141
v 9.364258 18.990818 -8.432617
v 8.427734 19.990818 -8.432617
v -9.364258 2.315036 -8.432617
v -8.427734 2.315036 -9.369141
v -8.427734 1.315036 -8.432617
v -9.364258 18.990818 -8.432617
v -8.427734 18.990818 -9.369141
v -8.427734 19.990818 -8.432617
v 9.364258 2.315036 8.432617
v 8.427734 2.315036 9.369141
v 8.427734 1.315036 8.432617
v 9.364258 18.990818 8.432617
v 8.427734 18.990818 9.369141
v 8.427734 19.990818 8.432617
v -8.427734 2.315036 9.369141
v -9.364258 2.315036 8.432617
v -8.427734 1.315036 8.432617
v -8.427734 18.990818 9.369141
v -9.364258 18.990818 8.432617
v -8.427734 19.990818 8.432617
v 8.427734 1.315036 8.432617
v -8.427734 1.315036 -8.432617
v 8.427734 1.315036 -8.432617
v -8.427734 1.315036 8.432617
v 9.364258 18.990818 -8.432617
v 9.364258 2.315036 8.432617
v 9.364258 2.315036 -8.432617
v 9.364258 18.990818 8.432617
v -8.427734 2.315036 9.369141
v 8.427734 18.990818 9.369141
v -8.427734 18.990818 9.369141
v 8.427734 2.315036 9.369141
v 8.427734 18.990818 -9.369141
v -8.427734 2.315036 -9.369141
v -8.427734 18.990818 -9.369141
v 8.427734 2.315036 -9.369141
v -9.364258 2.315036 8.432617
v -9.364258 18.990818 -8.432617
v -9.364258 2.315036 -8.432617
v -9.364258 18.990818 8.432617
v -8.427734 19.990818 -8.432617
v 8.427734 19.990818 8.432617
v 8.427734 19.990818 -8.432617
v -8.427734 19.990818 8.432617
v -6.758789 -0.000393 6.581055
v -6.758789 -0.000393 6.581055
v -6.758789 -0.000393 6.581055
v 6.758789 -0.000393 6.581055
v 6.758789 -0.000393 6.581055
v 6.758789 -0.000393 6.581055
v -6.758789 -0.000393 -6.581055
v -6.758789 -0.000393 -6.581055
v -6.758789 -0.000393 -6.581055
v 6.758789 -0.000393 -6.581055
v 6.758789 -0.000393 -6.581055
v 6.758789 -0.000393 -6.581055

vt 0.070313 0.937500
vt 0.101563 0.984375
vt 0.070313 0.937500
vt 0.015625 0.937500
vt 0.070313 0.937500
vt 0.101563 0.882813
vt 0.101563 0.984375
vt 0.070313 0.937500
vt 0.101563 0.882813
vt 0.070313 0.937500
vt 0.015625 0.937500
vt 0.070313 0.937500
vt 0.101563 0.984375
vt 0.070313 0.937500
vt 0.101563 0.882813
vt 0.070313 0.937500
vt 0.015625 0.937500
vt 0.070313 0.937500
vt 0.070313 0.937500
vt 0.101563 0.984375
vt 0.070313 0.937500
vt 0.015625 0.937500
vt 0.070313 0.937500
vt 0.101563 0.882813
vt 0.078125 0.078125
vt 0.945313 0.015625
vt 0.945313 0.078125
vt 0.078125 0.015625
vt 0.078125 0.078125
vt 0.945313 0.015625
vt 0.945313 0.078125
vt 0.078125 0.015625
vt 0.945313 0.078125
vt 0.078125 0.015625
vt 0.078125 0.078125
vt 0.945313 0.078125
vt 0.078125 0.078125
vt 0.945313 0.015625
vt 0.945313 0.093750
vt 0.078125 0.148438
vt 0.078125 0.093750
vt 0.945313 0.148438
vt 0.945313 0.093750
vt 0.078125 0.148438
vt 0.078125 0.093750
vt 0.945313 0.148438
vt 0.078125 0.093750
vt 0.945313 0.093750
vt 0.078125 0.148438
vt 0.078125 0.093750
vt 0.945313 0.148438
vt 0.945313 0.093750
vt 0.062500 0.062500
vt 0.015625 0.062500
vt 0.015625 0.015625
vt 0.062500 0.867188
vt 0.015625 0.867188
vt 0.015625 0.914063
vt 0.015625 0.062500
vt 0.062500 0.062500
vt 0.015625 0.015625
vt 0.015625 0.867188
vt 0.062500 0.867188
vt 0.015625 0.914063
vt 0.015625 0.062500
vt 0.062500 0.062500
vt 0.015625 0.015625
vt 0.015625 0.867188
vt 0.062500 0.867188
vt 0.015625 0.914063
vt 0.062500 0.062500
vt 0.015625 0.062500
vt 0.015625 0.015625
vt 0.062500 0.867188
vt 0.015625 0.867188
vt 0.015625 0.914063
vt 0.960938 0.156250
vt 0.148438 0.976563
vt 0.960938 0.976563
vt 0.148438 0.156250
vt 0.960938 0.976563
vt 0.148438 0.156250
vt 0.960938 0.156250
vt 0.148438 0.976563
vt 0.960938 0.156250
vt 0.148438 0.976563
vt 0.960938 0.976563
vt 0.148438 0.156250
vt 0.148438 0.976563
vt 0.960938 0.156250
vt 0.960938 0.976563
vt 0.148438 0.156250
vt 0.148438 0.156250
vt 0.960938 0.976563
vt 0.960938 0.156250
vt 0.148438 0.976563
vt 0.148438 0.976563
vt 0.960938 0.156250
vt 0.960938 0.976563
vt 0.148438 0.156250
vt 0.070313 0.937500
vt 0.070313 0.937500
vt 0.070313 0.937500
vt 0.070313 0.937500
vt 0.070313 0.937500
vt 0.070313 0.937500
vt 0.070313 0.937500
vt 0.070313 0.937500
vt 0.070313 0.937500
vt 0.070313 0.937500
vt 0.070313 0.937500
vt 0.070313 0.937500

vn 0.421139 -0.539057 0.729424
vn -0.307806 -0.788039 0.533152
vn -0.842271 -0.539054 0.000000
vn 0.615617 -0.788046 0.000000
vn 0.421139 -0.539057 -0.729424
vn -0.307806 -0.788039 -0.533152
vn 0.307806 -0.788039 0.533152
vn 0.842271 -0.539054 0.000000
vn 0.307806 -0.788039 -0.533152
vn -0.421139 -0.539057 0.729424
vn -0.615617 -0.788046 0.000000
vn -0.421139 -0.539057 -0.729424
vn -0.307806 -0.788039 -0.533152
vn -0.842271 -0.539054 0.000000
vn -0.307806 -0.788039 0.533152
vn 0.421139 -0.539057 -0.729424
vn 0.615617 -0.788046 0.000000
vn 0.421139 -0.539057 0.729424
vn -0.421139 -0.539057 -0.729424
vn 0.307806 -0.788039 -0.533152
vn 0.842271 -0.539054 0.000000
vn -0.615617 -0.788046 0.000000
vn -0.421139 -0.539057 0.729424
vn 0.307806 -0.788039 0.533152
vn 0.343510 -0.328312 -0.879893
vn -0.352959 -0.866560 -0.352837
vn -0.343510 -0.328312 -0.879893
vn 0.352959 -0.866560 -0.352837
vn 0.879994 -0.328243 0.343318
vn 0.352959 -0.866560 -0.352837
vn 0.879994 -0.328243 -0.343318
vn 0.352959 -0.866560 0.352837
vn -0.879994 -0.328243 -0.343318
vn -0.352959 -0.866560 0.352837
vn -0.879994 -0.328243 0.343318
vn -0.343510 -0.328312 0.879893
vn 0.343510 -0.328312 0.879893
vn -0.352959 -0.866560 0.352837
vn 0.879994 0.328243 -0.343318
vn 0.352959 0.866560 0.352837
vn 0.879994 0.328243 0.343318
vn 0.352959 0.866560 -0.352837
vn -0.343510 0.328312 -0.879893
vn 0.352959 0.866560 -0.352837
vn 0.343510 0.328312 -0.879893
vn -0.352959 0.866560 -0.352837
vn -0.879994 0.328243 0.343318
vn -0.879994 0.328243 -0.343318
vn -0.352959 0.866560 0.352837
vn 0.343510 0.328312 0.879893
vn -0.352959 0.866560 0.352837
vn -0.343510 0.328312 0.879893
vn 0.343510 -0.328312 -0.879893
vn 0.879994 -0.328243 -0.343318
vn 0.352959 -0.866560 -0.352837
vn 0.343510 0.328312 -0.879893
vn 0.879994 0.328243 -0.343318
vn 0.352959 0.866560 -0.352837
vn -0.879994 -0.328243 -0.343318
vn -0.343510 -0.328312 -0.879893
vn -0.352959 -0.866560 -0.352837
vn -0.879994 0.328243 -0.343318
vn -0.343510 0.328312 -0.879893
vn -0.352959 0.866560 -0.352837
vn 0.879994 -0.328243 0.343318
vn 0.343510 -0.328312 0.879893
vn 0.352959 -0.866560 0.352837
vn 0.879994 0.328243 0.343318
vn 0.343510 0.328312 0.879893
vn 0.352959 0.866560 0.352837
vn -0.343510 -0.328312 0.879893
vn -0.879994 -0.328243 0.343318
vn -0.352959 -0.866560 0.352837
vn -0.343510 0.328312 0.879893
vn -0.879994 0.328243 0.343318
vn -0.352959 0.866560 0.352837
vn 0.352959 -0.866560 0.352837
vn -0.352959 -0.866560 -0.352837
vn 0.352959 -0.866560 -0.352837
vn -0.352959 -0.866560 0.352837
vn 0.879994 0.328243 -0.343318
vn 0.879994 -0.328243 0.343318
vn 0.879994 -0.328243 -0.343318
vn 0.879994 0.328243 0.343318
vn -0.343510 -0.328312 0.879893
vn 0.343510 0.328312 0.879893
vn -0.343510 0.328312 0.879893
vn 0.343510 -0.328312 0.879893
vn 0.343510 0.328312 -0.879893
vn -0.343510 -0.328312 -0.879893
vn -0.343510 0.328312 -0.879893
vn 0.343510 -0.328312 -0.879893
vn -0.879994 -0.328243 0.343318
vn -0.879994 0.328243 -0.343318
vn -0.879994 -0.328243 -0.343318
vn -0.879994 0.328243 0.343318
vn -0.352959 0.866560 -0.352837
vn 0.352959 0.866560 0.352837
vn 0.352959 0.866560 -0.352837
vn -0.352959 0.866560 0.352837
vn 1.000000 0.000000 0.000000
vn 1.000000 0.000000 0.000000
vn 1.000000 0.000000 0.000000
vn 1.000000 0.000000 0.000000
vn 1.000000 0.000000 0.000000
vn 1.000000 0.000000 0.000000
vn 1.000000 0.000000 0.000000
vn 1.000000 0.000000 0.000000
vn 1.000000 0.000000 0.000000
vn 1.000000 0.000000 0.000000
vn 1.000000 0.000000 0.000000
vn 1.000000 0.000000 0.000000

g polygon0
s 1
usemtl mat1
f 1/1/1 2/2/2 3/3/3
f 1/1/1 4/4/4 2/2/2
f 5/5/5 4/4/4 1/1/1
f 5/5/5 6/6/6 4/4/4
f 3/3/3 6/6/6 5/5/5
f 3/3/3 2/2/2 6/6/6
f 7/7/7 8/8/8 9/9/9
f 7/7/7 10/10/10 8/8/8
f 11/11/11 10/10/10 7/7/7
f 11/11/11 12/12/12 10/10/10
f 9/9/9 12/12/12 11/11/11
f 9/9/9 8/8/8 12/12/12
f 13/13/13 14/14/14 15/15/15
f 13/13/13 16/16/16 14/14/14
f 17/17/17 16/16/16 13/13/13
f 17/17/17 18/18/18 16/16/16
f 15/15/15 18/18/18 17/17/17
f 15/15/15 14/14/14 18/18/18
f 19/19/19 20/20/20 21/21/21
f 19/19/19 22/22/22 20/20/20
f 23/23/23 22/22/22 19/19/19
f 23/23/23 24/24/24 22/22/22
f 21/21/21 24/24/24 23/23/23
f 21/21/21 20/20/20 24/24/24
f 25/25/25 26/26/26 27/27/27
f 25/25/25 28/28/28 26/26/26
f 29/29/29 30/30/30 31/31/31
f 29/29/29 32/32/32 30/30/30
f 33/33/33 34/34/34 35/35/35
f 33/33/33 26/26/26 34/34/34
f 36/36/36 32/32/32 37/37/37
f 36/36/36 38/38/38 32/32/32
f 39/39/39 40/40/40 41/41/41
f 39/39/39 42/42/42 40/40/40
f 43/43/43 44/44/44 45/45/45
f 43/43/43 46/46/46 44/44/44
f 47/47/47 46/46/46 48/48/48
f 47/47/47 49/49/49 46/46/46
f 50/50/50 51/51/51 52/52/52
f 50/50/50 40/40/40 51/51/51
f 53/53/53 54/54/54 55/55/55
f 53/53/53 56/56/56 54/54/54
f 56/56/56 57/57/57 54/54/54
f 56/56/56 58/58/58 57/57/57
f 59/59/59 60/60/60 61/61/61
f 59/59/59 62/62/62 60/60/60
f 62/62/62 63/63/63 60/60/60
f 62/62/62 64/64/64 63/63/63
f 65/65/65 66/66/66 67/67/67
f 65/65/65 68/68/68 66/66/66
f 68/68/68 69/69/69 66/66/66
f 68/68/68 70/70/70 69/69/69
f 71/71/71 72/72/72 73/73/73
f 71/71/71 74/74/74 72/72/72
f 74/74/74 75/75/75 72/72/72
f 74/74/74 76/76/76 75/75/75
f 77/77/77 78/78/78 79/79/79
f 77/77/77 80/80/80 78/78/78
f 81/81/81 82/82/82 83/83/83
f 81/81/81 84/84/84 82/82/82
f 85/85/85 86/86/86 87/87/87
f 85/85/85 88/88/88 86/86/86
f 89/89/89 90/90/90 91/91/91
f 89/89/89 92/92/92 90/90/90
f 93/93/93 94/94/94 95/95/95
f 93/93/93 96/96/96 94/94/94
f 97/97/97 98/98/98 99/99/99
f 97/97/97 100/100/100 98/98/98
f 101/101/101 102/102/102 103/103/103
f 104/104/104 105/105/105 106/106/106
f 107/107/107 108/108/108 109/109/109
f 110/110/110 111/111/111 112/112/112

