mtllib cmn_obj_phdestbox_brk_SD.mtl

v -6.139648 -5.855957 -6.143555
v 3.679932 -3.729980 -6.143555
v 2.799561 -5.855225 -6.143555
v -6.139648 6.144043 -6.143555
v -6.139648 6.144043 5.856445
v -6.139648 -3.713379 3.714844
v -6.139648 -2.826416 5.856445
v -6.139648 6.144043 -6.143555
v 5.860352 6.144043 -6.143555
v 3.678711 6.144043 3.716309
v 5.840576 6.144043 2.836914
v -6.139648 6.144043 -6.143555
v -6.139648 -5.855957 -6.143555
v -6.139648 -5.855957 2.827637
v 5.833008 -2.860596 -6.143555
v 5.860352 6.144043 -6.143555
v -6.139648 6.144043 5.856445
v 2.792236 6.144043 5.856445

vt 1.000000 0.485077
vt 1.410980 0.411194
vt 1.373138 0.485077
vt 1.000000 0.000000
vt 1.000000 0.485077
vt 1.410980 0.411194
vt 1.374451 0.485077
vt 1.000000 0.000000
vt 1.000000 0.485077
vt 1.410980 0.411194
vt 1.374542 0.485077
vt 1.000000 0.000000
vt 1.480927 0.000000
vt 1.480927 0.374481
vt 1.480927 0.375885
vt 1.480927 0.000000
vt 1.480927 0.000000
vt 1.480927 0.372864

vn 0.000000 0.000000 -1.000000
vn 0.000000 0.000000 -1.000000
vn 0.000000 0.000000 -1.000000
vn 0.000000 0.000000 -1.000000
vn -1.000000 0.000000 0.000000
vn -1.000000 0.000000 0.000000
vn -1.000000 0.000000 0.000000
vn -1.000000 0.000000 0.000000
vn 0.000000 1.000000 0.000000
vn 0.000000 1.000000 0.000000
vn 0.000000 1.000000 0.000000
vn 0.000000 1.000000 0.000000
vn -1.000000 0.000000 0.000000
vn -1.000000 0.000000 0.000000
vn 0.000000 0.000000 -1.000000
vn 0.000000 0.000000 -1.000000
vn 0.000000 1.000000 0.000000
vn 0.000000 1.000000 0.000000

g polygon0
s 1
usemtl mat1
f 1/1/1 2/2/2 3/3/3
f 1/1/1 4/4/4 2/2/2
f 5/5/5 6/6/6 7/7/7
f 5/5/5 8/8/8 6/6/6
f 9/9/9 10/10/10 11/11/11
f 9/9/9 12/12/12 10/10/10
f 13/13/13 6/6/6 8/8/8
f 13/13/13 14/14/14 6/6/6
f 4/4/4 15/15/15 2/2/2
f 4/4/4 16/16/16 15/15/15
f 17/17/17 10/10/10 12/12/12
f 17/17/17 18/18/18 10/10/10

v 3.678711 6.144043 3.716309
v 5.823242 -2.856689 2.841064
v 5.840576 6.144043 2.836914
v 3.681152 -3.717041 3.713867
v 2.792236 6.144043 5.856445
v 2.792236 -2.826416 5.856445
v -6.139648 -3.713379 3.714844
v 2.792236 -2.826416 5.856445
v -6.139648 -2.826416 5.856445
v 3.681152 -3.717041 3.713867
v -6.139648 -5.855957 2.827637
v 2.802490 -5.848145 2.831055
v 3.679932 -3.729980 -6.143555
v 2.802490 -5.848145 2.831055
v 2.799561 -5.855225 -6.143555
v 3.681152 -3.717041 3.713867
v 5.823242 -2.856689 2.841064
v 5.860352 6.144043 -6.143555
v 5.823242 -2.856689 2.841064
v 5.833008 -2.860596 -6.143555
v 5.840576 6.144043 2.836914
v -6.139648 -5.855957 2.827637
v 2.799561 -5.855225 -6.143555
v 2.802490 -5.848145 2.831055
v -6.139648 -5.855957 -6.143555
v -6.139648 6.144043 5.856445
v 2.792236 -2.826416 5.856445
v 2.792236 6.144043 5.856445
v -6.139648 -2.826416 5.856445
v 5.833008 -2.860596 -6.143555

vt 0.987885 0.997162
vt 0.770050 0.106140
vt 0.769775 0.997162
vt 0.988739 0.020081
vt 0.769775 0.997162
vt 0.770050 0.106140
vt 0.989258 0.997162
vt 0.770050 0.106140
vt 0.769775 0.997162
vt 0.988983 0.019714
vt 0.769775 0.997162
vt 0.770050 0.106140
vt 0.987488 0.997162
vt 0.770050 0.106140
vt 0.769775 0.997162
vt 0.988678 0.019135
vt 0.770050 0.106140
vt 0.756897 0.998138
vt 0.005951 0.248016
vt 0.756897 0.247681
vt 0.005951 0.998138
vt 0.005951 0.247864
vt 0.756897 0.997925
vt 0.005951 0.998199
vt 0.756897 0.247864
vt 0.005951 0.998627
vt 0.756897 0.247986
vt 0.756897 0.998627
vt 0.005951 0.247986
vt 0.769775 0.997162

vn 0.704937 -0.000061 0.709270
vn 0.377318 -0.000122 0.926084
vn 0.376709 -0.000305 0.926331
vn 0.703558 -0.000061 0.710638
vn 0.923848 0.000122 0.382760
vn 0.923648 0.000000 0.383241
vn -0.000061 -0.707107 0.707107
vn -0.000244 -0.923501 0.383597
vn 0.000000 -0.923878 0.382686
vn -0.000183 -0.706405 0.707808
vn -0.000061 -0.382686 0.923878
vn 0.000000 -0.382738 0.923857
vn 0.704110 -0.710091 0.000488
vn 0.924381 -0.381471 0.000305
vn 0.923878 -0.382686 0.000000
vn 0.703189 -0.711002 0.000854
vn 0.373284 -0.927717 0.001099
vn 0.999995 -0.002502 0.001648
vn 0.999995 -0.002502 0.001648
vn 0.999995 -0.003052 0.001099
vn 0.999996 -0.001953 0.002197
vn 0.000488 -1.000000 0.000366
vn 0.000488 -1.000000 0.000366
vn 0.000854 -0.999999 0.000793
vn 0.000061 -1.000000 0.000000
vn 0.000000 0.000000 1.000000
vn 0.000000 0.000000 1.000000
vn 0.000000 0.000000 1.000000
vn 0.000000 0.000000 1.000000
vn 0.374377 -0.927276 0.000793

g polygon1
s 1
usemtl mat3
f 19/19/19 20/20/20 21/21/21
f 19/19/19 22/22/22 20/20/20
f 23/23/23 22/22/22 19/19/19
f 23/23/23 24/24/24 22/22/22
f 25/25/25 26/26/26 27/27/27
f 25/25/25 28/28/28 26/26/26
f 29/29/29 28/28/28 25/25/25
f 29/29/29 30/30/30 28/28/28
f 31/31/31 32/32/32 33/33/33
f 31/31/31 34/34/34 32/32/32
f 35/35/35 34/34/34 31/31/31
f 36/36/36 37/37/37 38/38/38
f 36/36/36 39/39/39 37/37/37
f 40/40/40 41/41/41 42/42/42
f 40/40/40 43/43/43 41/41/41
f 44/44/44 45/45/45 46/46/46
f 44/44/44 47/47/47 45/45/45
f 48/48/48 35/35/35 31/31/31

v 3.454102 5.722412 3.506836
v 5.464111 -2.712646 2.686523
v 5.480225 5.722412 2.682861
v 3.456543 -3.518799 3.504639
v 2.623535 5.722412 5.512451
v 2.623535 -2.684326 5.512451
v -5.661621 -3.485107 3.486328
v 2.623535 -2.684326 5.512451
v -5.747070 -2.684326 5.512451
v 3.456543 -3.518799 3.504639
v -5.661621 -5.473633 2.662598
v 2.633057 -5.515869 2.677246
v 3.455322 -3.531006 -5.733398
v 2.633057 -5.515869 2.677246
v 2.630371 -5.522705 -5.733398
v 3.456543 -3.518799 3.504639
v 5.464111 -2.712646 2.686523
v 5.498779 5.722412 -5.733398
v 5.464111 -2.712646 2.686523
v 5.473145 -2.716309 -5.733398
v 5.480225 5.722412 2.682861
v -5.661621 -5.473633 2.662598
v 2.630371 -5.522705 -5.733398
v 2.633057 -5.515869 2.677246
v -5.661621 -5.473633 -5.664063
v -5.747070 5.722412 5.512451
v 2.623535 -2.684326 5.512451
v 2.623535 5.722412 5.512451
v -5.747070 -2.684326 5.512451
v 5.473145 -2.716309 -5.733398

vt 0.830048 0.618927
vt 0.959869 0.072510
vt 0.960785 0.618927
vt 0.830261 0.020264
vt 0.700287 0.618927
vt 0.700287 0.074341
vt 0.337433 0.787842
vt 0.877869 0.915741
vt 0.332672 0.918030
vt 0.931335 0.784637
vt 0.337128 0.658295
vt 0.877380 0.654724
vt 0.598541 0.298401
vt 0.053558 0.170471
vt 0.598480 0.169586
vt 0.000031 0.299500
vt 0.053192 0.428619
vt 0.597992 0.598663
vt 0.000671 0.000275
vt 0.597992 0.000000
vt 0.000946 0.598663
vt 0.597626 0.594543
vt 0.000000 0.004303
vt 0.598663 0.004120
vt 0.004913 0.594543
vt 0.001282 0.598663
vt 0.597382 0.000000
vt 0.597382 0.598663
vt 0.001282 0.000000
vt 0.598694 0.428375

vn 7924809334889683200000000000000000.000000 7840161470883427500000000000000000.000000 -1.#QNAN0
vn 7924809334889683200000000000000000.000000 7840161470883427500000000000000000.000000 -1.#QNAN0
vn 7924809334889683200000000000000000.000000 7840161470883427500000000000000000.000000 -1.#QNAN0
vn 7900660838543343300000000000000000.000000 0.000000 0.000000
vn 7900660838543343300000000000000000.000000 0.000000 0.000000
vn 7900660838543343300000000000000000.000000 0.000000 0.000000
vn 7924809334889683200000000000000000.000000 7840161470883427500000000000000000.000000 -1.#QNAN0
vn 7924809334889683200000000000000000.000000 7840161470883427500000000000000000.000000 -1.#QNAN0
vn 7924809334889683200000000000000000.000000 7840161470883427500000000000000000.000000 -1.#QNAN0
vn 7900660838543343300000000000000000.000000 0.000000 0.000000
vn 7900660838543343300000000000000000.000000 0.000000 0.000000
vn 7900660838543343300000000000000000.000000 0.000000 0.000000
vn 7924809334889683200000000000000000.000000 7840161470883427500000000000000000.000000 -1.#QNAN0
vn 7924809334889683200000000000000000.000000 7840161470883427500000000000000000.000000 -1.#QNAN0
vn 7924809334889683200000000000000000.000000 7840161470883427500000000000000000.000000 -1.#QNAN0
vn 7900660838543343300000000000000000.000000 0.000000 0.000000
vn 7900660838543343300000000000000000.000000 0.000000 0.000000
vn 7924809334889683200000000000000000.000000 7840161470883427500000000000000000.000000 -1.#QNAN0
vn 7924809334889683200000000000000000.000000 7840161470883427500000000000000000.000000 -1.#QNAN0
vn 7924809334889683200000000000000000.000000 7840161470883427500000000000000000.000000 -1.#QNAN0
vn 7900660838543343300000000000000000.000000 0.000000 0.000000
vn 7924809334889683200000000000000000.000000 7840161470883427500000000000000000.000000 -1.#QNAN0
vn 7924809334889683200000000000000000.000000 7840161470883427500000000000000000.000000 -1.#QNAN0
vn 7924809334889683200000000000000000.000000 7840161470883427500000000000000000.000000 -1.#QNAN0
vn 7900660838543343300000000000000000.000000 0.000000 0.000000
vn 7924809334889683200000000000000000.000000 7840161470883427500000000000000000.000000 -1.#QNAN0
vn 7924809334889683200000000000000000.000000 7840161470883427500000000000000000.000000 -1.#QNAN0
vn 7924809334889683200000000000000000.000000 7840161470883427500000000000000000.000000 -1.#QNAN0
vn 7900660838543343300000000000000000.000000 0.000000 0.000000
vn 7924809334889683200000000000000000.000000 7840161470883427500000000000000000.000000 -1.#QNAN0

g polygon2
s 1
usemtl mat2
f 49/49/49 50/50/50 51/51/51
f 49/49/49 52/52/52 50/50/50
f 53/53/53 52/52/52 49/49/49
f 53/53/53 54/54/54 52/52/52
f 55/55/55 56/56/56 57/57/57
f 55/55/55 58/58/58 56/56/56
f 59/59/59 58/58/58 55/55/55
f 59/59/59 60/60/60 58/58/58
f 61/61/61 62/62/62 63/63/63
f 61/61/61 64/64/64 62/62/62
f 65/65/65 64/64/64 61/61/61
f 66/66/66 67/67/67 68/68/68
f 66/66/66 69/69/69 67/67/67
f 70/70/70 71/71/71 72/72/72
f 70/70/70 73/73/73 71/71/71
f 74/74/74 75/75/75 76/76/76
f 74/74/74 77/77/77 75/75/75
f 78/78/78 65/65/65 61/61/61

