<?xml version="1.0" standalone="no"?><!-- Generator: Gravit.io --><svg xmlns="http://www.w3.org/2000/svg" xmlns:xlink="http://www.w3.org/1999/xlink" style="isolation:isolate" viewBox="0 0 550 512" width="550" height="512"><defs><clipPath id="_clipPath_7LmvF8mymqInyhGamWkDZatYcz9qKVE7"><rect width="550" height="512"/></clipPath></defs><g clip-path="url(#_clipPath_7LmvF8mymqInyhGamWkDZatYcz9qKVE7)"><circle vector-effect="non-scaling-stroke" cx="114.9294152392203" cy="114.9294152392203" r="114.9294152392203" fill="rgb(255,255,255)"/><circle vector-effect="non-scaling-stroke" cx="333.4861193148257" cy="139.58860011813348" r="90.27023036030711" fill="rgb(255,255,255)"/><path d="M 88.457 242.629 L 356.289 242.629 C 383.885 242.629 406.289 265.033 406.289 292.629 L 406.289 447 C 406.289 474.596 383.885 497 356.289 497 L 88.457 497 C 60.861 497 38.457 474.596 38.457 447 L 38.457 292.629 C 38.457 265.033 60.861 242.629 88.457 242.629 Z" style="stroke:none;fill:#FFFFFF;stroke-miterlimit:10;"/><path d=" M 418 293.76 L 498.02 263.862 C 505.736 260.979 512 265.326 512 273.562 L 512 456.715 C 512 464.952 505.727 469.321 498.001 466.467 L 418.291 437.018 L 418 293.76 Z " fill="rgb(255,255,255)"/></g></svg>