<?xml version="1.0" standalone="no"?><!-- Generator: Gravit.io --><svg xmlns="http://www.w3.org/2000/svg" xmlns:xlink="http://www.w3.org/1999/xlink" style="isolation:isolate" viewBox="0 0 512 512" width="512" height="512"><g><path d=" M 241.296 0.227 C 224.924 1.308 204.749 4.39 202.347 6.191 C 199.906 7.953 199.946 7.632 199.946 26.967 L 199.906 44.699 L 199.025 45.06 C 198.545 45.22 195.102 46.301 191.339 47.461 C 183.734 49.783 176.008 52.585 169.123 55.587 C 163.679 57.909 152.311 63.553 148.909 65.595 L 146.507 67.036 L 134.098 54.707 C 127.293 47.902 121.288 42.138 120.808 41.897 C 119.607 41.297 116.925 41.337 115.364 42.017 C 113.723 42.698 105.117 48.862 98.872 53.826 C 83.101 66.315 66.168 83.248 53.799 98.899 C 46.354 108.306 41.911 114.791 41.43 116.912 C 40.71 120.034 41.03 120.435 54.44 133.924 L 67.009 146.534 L 65.568 148.935 C 63.526 152.378 57.882 163.746 55.56 169.15 C 52.558 176.035 49.756 183.761 47.435 191.366 C 46.274 195.089 45.193 198.572 45.033 199.052 L 44.673 199.933 L 26.94 199.973 C 7.525 199.973 7.966 199.933 6.084 202.454 C 4.723 204.296 2.162 219.507 0.721 234.198 C -0.24 244.285 -0.24 267.742 0.721 277.829 C 2.162 292.52 4.723 307.771 6.124 309.613 C 7.966 312.094 7.566 312.054 26.94 312.054 L 44.673 312.094 L 45.033 312.975 C 45.193 313.455 46.274 316.898 47.435 320.661 C 49.756 328.266 52.558 335.992 55.56 342.877 C 57.882 348.321 63.526 359.689 65.568 363.091 L 67.009 365.493 L 54.68 377.902 C 47.875 384.707 42.111 390.712 41.871 391.192 C 41.27 392.393 41.31 395.075 41.991 396.636 C 42.671 398.277 48.836 406.883 53.799 413.128 C 66.288 428.899 83.221 445.832 98.872 458.201 C 108.279 465.646 114.764 470.089 116.885 470.57 C 120.007 471.29 120.408 470.97 133.898 457.56 L 146.507 444.991 L 148.909 446.432 C 152.351 448.474 163.719 454.118 169.123 456.44 C 176.008 459.442 183.734 462.244 191.339 464.565 C 195.102 465.726 198.545 466.807 199.025 466.967 L 199.906 467.327 L 199.946 485.06 C 199.946 504.475 199.906 504.034 202.428 505.916 C 204.269 507.277 219.48 509.838 234.171 511.279 C 244.258 512.24 267.715 512.24 277.802 511.279 C 292.493 509.838 307.744 507.277 309.586 505.876 C 312.067 504.034 312.027 504.434 312.027 485.06 L 312.067 467.327 L 312.948 466.967 C 313.428 466.807 316.911 465.726 320.634 464.565 C 328.239 462.244 335.965 459.442 342.85 456.44 C 348.294 454.118 359.662 448.474 363.065 446.432 L 365.466 444.991 L 377.875 457.32 C 384.72 464.125 390.685 469.889 391.165 470.129 C 392.366 470.73 395.048 470.69 396.609 470.009 C 398.25 469.329 406.857 463.164 413.101 458.201 C 428.873 445.712 445.805 428.779 458.174 413.128 C 465.619 403.721 470.063 397.236 470.543 395.115 C 471.263 391.993 470.943 391.592 457.533 378.102 L 444.964 365.493 L 446.405 363.091 C 448.447 359.649 454.091 348.281 456.413 342.877 C 459.415 335.992 462.217 328.266 464.539 320.661 C 465.699 316.898 466.78 313.455 466.94 312.975 L 467.301 312.094 L 485.033 312.054 C 504.448 312.054 504.007 312.094 505.889 309.572 C 507.25 307.731 509.812 292.52 511.253 277.829 C 512.213 267.742 512.213 244.285 511.253 234.198 C 509.812 219.507 507.25 204.256 505.849 202.414 C 504.007 199.933 504.408 199.973 485.033 199.973 L 467.301 199.933 L 466.94 199.052 C 466.78 198.572 465.699 195.089 464.539 191.366 C 462.217 183.761 459.415 176.035 456.413 169.15 C 454.091 163.706 448.447 152.338 446.405 148.935 L 444.964 146.534 L 457.293 134.125 C 464.098 127.28 469.862 121.315 470.103 120.835 C 470.703 119.634 470.663 116.952 469.983 115.391 C 469.302 113.75 463.138 105.143 458.174 98.899 C 445.685 83.127 428.752 66.195 413.101 53.826 C 403.694 46.381 397.209 41.937 395.088 41.457 C 391.966 40.737 391.565 41.057 378.076 54.467 L 365.466 67.036 L 363.065 65.595 C 359.622 63.553 348.254 57.909 342.85 55.587 C 335.965 52.585 328.239 49.783 320.634 47.461 C 316.911 46.301 313.428 45.22 312.948 45.06 L 312.067 44.699 L 312.027 26.967 C 312.027 7.552 312.067 7.993 309.546 6.111 C 307.704 4.75 292.253 2.148 278.203 0.827 C 270.197 0.067 248.861 -0.253 241.296 0.227 Z  M 267.715 137.967 C 308.425 141.65 345.172 167.469 363.105 204.976 C 369.91 219.187 373.552 233.597 374.433 249.729 C 376.074 279.31 366.667 308.051 347.693 331.268 C 328.84 354.405 301.86 369.416 271.598 373.699 C 263.272 374.86 248.701 374.86 240.375 373.699 C 213.956 369.976 190.659 358.408 172.125 339.875 C 153.592 321.341 142.024 298.044 138.301 271.625 C 137.14 263.299 137.14 248.728 138.301 240.402 C 142.584 210.14 157.595 183.16 180.732 164.307 C 205.51 144.092 235.332 135.045 267.715 137.967 Z " fill="rgb(255,255,255)"/></g></svg>