<?xml version="1.0" standalone="no"?><!-- Generator: Gravit.io --><svg xmlns="http://www.w3.org/2000/svg" xmlns:xlink="http://www.w3.org/1999/xlink" style="isolation:isolate" viewBox="0 0 512 512" width="512" height="512"><g><path d=" M 78.833 0.654 C 78.578 1.078 72.982 19.734 66.325 42.122 C 59.668 64.509 42.665 121.749 28.504 169.322 C 14.384 216.895 2.131 258.066 1.325 260.822 C -0.456 266.843 -0.456 268.072 1.41 268.242 C 3.7 268.454 -2.321 269.641 138.532 241.615 C 250.511 219.355 247.162 220.033 248.052 219.27 C 248.434 218.888 248.773 218.252 248.773 217.871 C 248.773 217.489 241.777 208.415 233.255 197.688 C 211.758 170.722 202.981 159.528 202.981 158.977 C 202.981 158.298 211.249 154.27 219.093 151.175 C 254.751 137.056 289.647 136.929 320.217 150.793 C 347.184 163.005 369.741 185.901 383.563 214.987 C 392.552 233.94 397.259 253.148 397.895 273.924 C 398.022 278.757 398.319 282.955 398.488 283.252 C 398.7 283.591 400.227 283.888 402.559 284.1 C 408.622 284.524 509.322 284.481 510.552 284.015 C 511.188 283.803 511.739 283.167 511.909 282.446 C 512.291 280.962 511.4 263.451 510.594 256.073 C 502.793 186.367 465.777 117.721 412.65 74.558 C 389.287 55.605 361.515 41.019 334.209 33.43 C 285.492 19.861 233.933 23.72 179.661 45.005 C 168.128 49.542 157.74 54.333 143.875 61.541 L 134.123 66.629 L 133.317 65.611 C 132.851 65.06 123.099 52.679 111.608 38.094 C 82.225 0.824 81.716 0.188 80.359 0.018 C 79.596 -0.067 79.087 0.145 78.833 0.654 Z " fill="rgb(255,255,255)"/></g></svg>