<?xml version="1.0" standalone="no"?><!-- Generator: Gravit.io --><svg xmlns="http://www.w3.org/2000/svg" xmlns:xlink="http://www.w3.org/1999/xlink" style="isolation:isolate" viewBox="0 0 512 512" width="512" height="512"><path d=" M 80.138 69.966 C 122.674 29.732 175.575 6.903 229.873 1.375 L 254.196 46.558 L 233.426 82.484 C 200.314 86.76 168.174 100.497 141.389 123.746 L 131.102 85.261 L 80.138 69.966 Z  M 263.22 0.152 C 318.185 1.696 372.709 20.82 417.591 57.418 L 402.822 106.627 L 362.781 117.33 C 334.907 95.821 301.969 83.853 268.455 81.476 L 288.414 46.953 L 263.22 0.152 Z  M 442.034 80.138 C 482.268 122.674 505.097 175.575 510.625 229.873 L 465.442 254.196 L 429.516 233.426 C 425.24 200.314 411.503 168.174 388.254 141.389 L 426.739 131.102 L 442.034 80.138 Z  M 511.848 263.22 C 510.304 318.185 491.18 372.709 454.582 417.591 L 405.373 402.822 L 394.67 362.781 C 416.179 334.907 428.147 301.969 430.524 268.455 L 465.047 288.414 L 511.848 263.22 Z  M 431.862 442.034 C 389.326 482.268 336.425 505.097 282.127 510.625 L 257.804 465.442 L 278.574 429.516 C 311.686 425.24 343.826 411.503 370.611 388.254 L 380.898 426.739 L 431.862 442.034 Z  M 248.78 511.848 C 193.815 510.304 139.291 491.18 94.409 454.582 L 109.178 405.373 L 149.219 394.67 C 177.093 416.179 210.031 428.147 243.545 430.524 L 223.586 465.047 L 248.78 511.848 Z  M 69.966 431.862 C 29.732 389.326 6.903 336.425 1.375 282.127 L 46.558 257.804 L 82.484 278.574 C 86.76 311.686 100.497 343.826 123.746 370.611 L 85.261 380.898 L 69.966 431.862 Z  M 0.152 248.78 C 1.696 193.815 20.82 139.291 57.418 94.409 L 106.627 109.178 L 117.33 149.219 C 95.821 177.093 83.853 210.031 81.476 243.545 L 46.953 223.586 L 0.152 248.78 Z " fill-rule="evenodd" fill="rgb(255,255,255)"/></svg>