<?xml version="1.0" standalone="no"?><!-- Generator: Gravit.io --><svg xmlns="http://www.w3.org/2000/svg" xmlns:xlink="http://www.w3.org/1999/xlink" style="isolation:isolate" viewBox="0 0 512 512" width="512" height="512"><path d=" M 512 287.741 L 441.788 311.235 L 488.178 368.939 L 414.142 368.363 L 439.282 438.002 L 369.445 413.418 L 370.611 487.447 L 312.54 441.519 L 289.605 511.916 L 249.594 449.62 L 205.044 508.756 L 187.428 436.844 L 126.091 478.31 L 132.779 404.574 L 61.301 423.878 L 91.568 356.309 L 17.695 351.358 L 68.263 297.278 L 0 268.609 L 65.387 233.878 L 10.132 184.597 L 83.253 172.979 L 46.994 108.427 L 119.925 121.182 L 106.59 48.354 L 171.429 84.098 L 182.463 10.886 L 232.183 65.746 L 266.391 0.084 L 295.604 68.116 L 349.279 17.119 L 354.819 90.95 L 422.145 60.145 L 403.412 131.775 L 477.092 124.499 L 436.116 186.165 L 508.166 203.207 L 449.387 248.227 L 512 287.741 Z " fill="rgb(255,255,255)"/></svg>