<?xml version="1.0" standalone="no"?><!-- Generator: Gravit.io --><svg xmlns="http://www.w3.org/2000/svg" xmlns:xlink="http://www.w3.org/1999/xlink" style="isolation:isolate" viewBox="0 0 512 512" width="512" height="512"><path d=" M 82.595 2.675 C 78.754 4.047 59.549 22.155 39.246 42.732 C 1.383 81.692 -3.006 88.825 1.383 105.836 C 2.481 110.774 28.545 139.034 74.364 184.853 L 145.424 256.187 L 80.675 320.663 C 45.007 356.056 12.358 390.077 7.968 395.838 C -0.811 407.636 -2.183 418.336 3.853 429.86 C 9.889 441.109 77.108 506.407 86.162 509.974 C 103.172 516.284 109.208 511.894 184.384 436.719 L 254.896 366.207 L 327.053 437.542 C 401.955 511.894 404.973 514.089 423.904 510.797 C 435.427 508.602 508.957 435.073 511.152 423.824 C 514.17 406.813 509.231 400.777 437.622 328.894 C 399.211 290.208 367.659 257.559 367.659 255.913 C 367.659 254.541 399.211 221.892 437.622 183.481 C 511.426 109.677 515.267 104.738 510.054 86.63 C 507.31 76.205 436.25 4.321 425.824 1.029 C 422.258 -0.069 414.85 -0.069 409.363 1.029 C 400.857 2.675 388.237 13.924 327.053 74.558 L 255.17 146.442 L 184.384 75.93 C 145.699 37.245 111.129 4.321 107.837 2.675 C 100.703 -0.892 91.649 -0.892 82.595 2.675 Z " fill="rgb(255,255,255)"/></svg>